<svg width="213" height="267" viewBox="0 0 213 267" fill="none" xmlns="http://www.w3.org/2000/svg">
<path d="M106.5 146.792C102.453 146.744 98.4893 147.938 95.1415 150.212C91.7937 152.485 89.2228 155.73 87.7749 159.509C86.327 163.288 86.0715 167.42 87.043 171.349C88.0144 175.277 90.1661 178.814 93.2083 181.483V199.958C93.2083 203.484 94.6087 206.864 97.1014 209.357C99.5941 211.85 102.975 213.25 106.5 213.25C110.025 213.25 113.406 211.85 115.899 209.357C118.391 206.864 119.792 203.484 119.792 199.958V181.483C122.834 178.814 124.986 175.277 125.957 171.349C126.928 167.42 126.673 163.288 125.225 159.509C123.777 155.73 121.206 152.485 117.859 150.212C114.511 147.938 110.547 146.744 106.5 146.792V146.792ZM172.958 93.625V67.0417C172.958 49.4158 165.956 32.5119 153.493 20.0485C141.03 7.58518 124.126 0.583336 106.5 0.583336C88.8742 0.583336 71.9702 7.58518 59.5069 20.0485C47.0435 32.5119 40.0417 49.4158 40.0417 67.0417V93.625C29.4662 93.625 19.3238 97.8261 11.8458 105.304C4.36779 112.782 0.166687 122.924 0.166687 133.5V226.542C0.166687 237.117 4.36779 247.26 11.8458 254.738C19.3238 262.216 29.4662 266.417 40.0417 266.417H172.958C183.534 266.417 193.676 262.216 201.154 254.738C208.632 247.26 212.833 237.117 212.833 226.542V133.5C212.833 122.924 208.632 112.782 201.154 105.304C193.676 97.8261 183.534 93.625 172.958 93.625ZM66.625 67.0417C66.625 56.4662 70.8261 46.3238 78.3041 38.8458C85.7821 31.3678 95.9245 27.1667 106.5 27.1667C117.076 27.1667 127.218 31.3678 134.696 38.8458C142.174 46.3238 146.375 56.4662 146.375 67.0417V93.625H66.625V67.0417ZM186.25 226.542C186.25 230.067 184.85 233.448 182.357 235.94C179.864 238.433 176.484 239.833 172.958 239.833H40.0417C36.5165 239.833 33.1357 238.433 30.6431 235.94C28.1504 233.448 26.75 230.067 26.75 226.542V133.5C26.75 129.975 28.1504 126.594 30.6431 124.101C33.1357 121.609 36.5165 120.208 40.0417 120.208H172.958C176.484 120.208 179.864 121.609 182.357 124.101C184.85 126.594 186.25 129.975 186.25 133.5V226.542Z" fill="black"/>
</svg>
